<?xml version="1.0" encoding="utf-8"?>
<!-- Generator: Adobe Illustrator 14.0.0, SVG Export Plug-In . SVG Version: 6.00 Build 43363)  -->
<!DOCTYPE svg PUBLIC "-//W3C//DTD SVG 1.0//EN" "http://www.w3.org/TR/2001/REC-SVG-20010904/DTD/svg10.dtd">
<svg version="1.0"
	 id="svg2" xmlns:rdf="http://www.w3.org/1999/02/22-rdf-syntax-ns#" xmlns:dc="http://purl.org/dc/elements/1.1/" xmlns:cc="http://creativecommons.org/ns#" xmlns:svg="http://www.w3.org/2000/svg"
	 xmlns="http://www.w3.org/2000/svg" xmlns:xlink="http://www.w3.org/1999/xlink" x="0px" y="0px" width="1137.373px"
	 height="201.053px" viewBox="0 0 1137.373 201.053" enable-background="new 0 0 1137.373 201.053" xml:space="preserve">
<g id="g10" transform="matrix(1.3333333,0,0,-1.3333333,0,201.05333)">
	<path id="path14" fill="#231F20" d="M594.943,142.055V83.829h32.166c4.823,0,8.734,3.91,8.734,8.733l-0.001,40.76
		c0,4.824-3.91,8.733-8.735,8.733H594.943L594.943,142.055z M627.107,150.79c9.649,0,17.468-7.821,17.468-17.468v-40.76
		c0-9.646-7.819-17.468-17.468-17.468H586.35v75.696H627.107L627.107,150.79"/>
	<path id="path16" fill="#231F20" d="M683.869,113.898l22.168,36.892h10.19l-27.985-46.574l0.006-29.122h-8.734l-0.006,29.105
		l-27.996,46.591h10.191L683.869,113.898L683.869,113.898"/>
	<path id="path18" fill="#231F20" d="M784.05,150.79l-34.02-36.481l36.567-39.215h-11.941l-32.58,34.937h-5.5V75.094h-8.734v75.696
		h8.734v-32.025h5.667l29.863,32.025H784.05L784.05,150.79"/>
	<path id="path20" fill="#231F20" d="M803.538,83.829h49.492v-8.735h-58.226v75.696h58.226v-8.734l-49.492-0.001v-23.29h40.757
		v-8.733l-40.757,0.001V83.829"/>
	<path id="path22" fill="#231F20" d="M8.734,142.055v-23.29h32.027c4.824,0,8.733,3.91,8.733,8.734v5.823
		c0,4.824-3.91,8.733-8.733,8.733H8.734L8.734,142.055z M8.734,110.031V75.094H0v75.636l40.761,0.06
		c9.647,0,17.468-7.821,17.468-17.468v-5.823c0-5.218-2.287-9.901-5.914-13.101c3.627-3.201,5.914-7.884,5.914-13.101V75.094h-8.735
		v26.203c0,4.824-3.909,8.734-8.733,8.734H8.734L8.734,110.031"/>
	<path id="path24" fill="#231F20" d="M114.125,83.829c4.824,0,8.734,3.909,8.734,8.733v58.228h8.736V92.562
		c0-9.646-7.822-17.468-17.47-17.468h-23.29c-9.647,0-17.468,7.822-17.468,17.468v58.228h8.734V92.562
		c0-4.824,3.91-8.733,8.734-8.733H114.125L114.125,83.829"/>
	<path id="path26" fill="#231F20" d="M186.91,83.829c4.823,0,8.733,3.909,8.733,8.733v58.228h8.734V92.562
		c0-9.646-7.82-17.468-17.468-17.468h-23.291c-9.648,0-17.468,7.822-17.468,17.468v58.228h8.734V92.562
		c0-4.824,3.911-8.733,8.734-8.733H186.91L186.91,83.829"/>
	<path id="path28" fill="#231F20" d="M230.441,142.055V83.829h32.166c4.823,0,8.733,3.91,8.733,8.733v40.76
		c0,4.824-3.911,8.733-8.734,8.733H230.441L230.441,142.055z M262.606,150.79c9.646,0,17.468-7.821,17.468-17.468v-40.76
		c0-9.646-7.822-17.468-17.468-17.468h-40.76v75.696H262.606L262.606,150.79"/>
	<path id="path30" fill="#231F20" d="M349.248,75.094l-26.063,75.696h9.238l23.056-66.961h3.137l23.055,66.961h9.238l-26.063-75.696
		H349.248L349.248,75.094"/>
	<path id="path32" fill="#231F20" d="M416.478,150.79h15.597l26.063-75.696h-9.235l-10.026,29.114h-29.201l-10.023-29.114h-9.237
		L416.478,150.79L416.478,150.79z M435.869,112.942l-10.024,29.114h-3.135l-10.026-29.114H435.869L435.869,112.942"/>
	<path id="path34" fill="#231F20" d="M519.151,83.829h1.984v66.961h8.734V75.094h-16.284l-31.225,66.961h-1.986V75.094h-8.734
		v75.696h16.283L519.151,83.829L519.151,83.829"/>
	<path id="path36" fill="#231F20" d="M262.176,4.329h14.375c4.916,0,7.321,0.588,7.321,6.732c0,5.292-0.802,7.964-6.787,7.857
		h-14.908V4.329z M262.176,22.925h13.2c5.45,0,7.319,1.227,7.319,7.482c0,5.396-2.083,5.984-6.839,5.984h-13.679V22.925z
		 M257.635,0.321v40.076h20.305c7.535,0,9.298-3.579,9.298-10.58c0-4.22-0.854-7.053-5.023-8.441v-0.108
		c5.344-0.963,6.198-4.811,6.198-9.779c0-7.215-2.672-11.169-9.458-11.169H257.635L257.635,0.321"/>
	<path id="path38" fill="#231F20" d="M319.993,20.361c7,0.213,7.855,2.351,7.855,8.975c0,5.131-0.695,7.055-7.855,7.055h-14v-16.03
		H319.993z M305.993,0.321h-4.542v40.076h18.49c8.656,0,12.45-2.403,12.45-11.541c0-5.61-0.641-9.779-7-10.581v-0.107
		c4.488-0.318,6.465-2.886,6.465-7.213V0.321h-4.541v8.498c0,5.075-1.23,7.534-6.733,7.534h-14.588V0.321"/>
	<path id="path40" fill="#231F20" d="M377.115,40.397V11.543c0-10.74-6.412-11.543-15.87-11.543c-8.763,0-15.87,0.212-15.87,11.543
		v28.854h4.541V11.543c0-6.52,1.55-7.535,11.329-7.535c8.069,0,11.329,0.052,11.329,7.535v28.854H377.115L377.115,40.397"/>
	<path id="path42" fill="#231F20" d="M408.642,21.055l13.786-20.734h-5.343l-12.184,18.435l-12.45-18.435h-5.558l14.321,20.734
		l-13.145,19.342h5.451l11.381-17.151l11.223,17.151h5.342L408.642,21.055L408.642,21.055"/>
	<path id="path44" fill="#231F20" d="M435.145,22.764h20.306v-3.739h-20.306V4.329h21.215V0.321h-25.757v40.076h25.757v-4.006
		h-21.215V22.764"/>
	<path id="path46" fill="#231F20" d="M473.192,4.329h20.413V0.321h-24.954v40.076h4.541V4.329"/>
	<path id="path48" fill="#231F20" d="M509.314,4.329h20.413V0.321h-24.955v40.076h4.542V4.329"/>
	<path id="path50" fill="#231F20" d="M543.618,22.764h20.307v-3.739h-20.307V4.329h21.216V0.321h-25.757v40.076h25.757v-4.006
		h-21.216V22.764"/>
	<path id="path52" fill="#231F20" d="M575.04,29.071c0,10.686,4.917,11.647,14.802,11.647c8.656,0,14.909-0.373,14.427-11.273
		h-4.541c-0.215,7-1.551,7.266-10.047,7.266c-8.87,0-10.099-1.122-10.099-6.678c0-7.641,3.634-7.001,11.115-7.216
		c9.512-0.533,14.32-0.264,14.32-11.113C605.017,0.373,599.673,0,589.575,0c-10.206,0-15.498,1.23-14.641,12.827h4.541
		c-0.105-8.819,1.603-8.819,10.1-8.819c8.55,0,10.901,0,10.901,7.856c0,7.64-3.42,6.359-10.742,6.946
		C581.826,19.45,575.04,18.49,575.04,29.071L575.04,29.071"/>
</g>
</svg>
